<?xml version="1.0" encoding="UTF-8"?>
<svg xmlns="http://www.w3.org/2000/svg" viewBox="0 0 43.06 29.36">
  <defs>
    <style>
      .cls-1 {
        fill: none;
        stroke: blue;
        stroke-miterlimit: 10;
        stroke-width: 3px;
      }
    </style>
  </defs>
  <g id="_레이어_1" data-name="레이어 1">
    <g>
      <!-- 레이어 1에 클래스 이름이 안들어간 이유?? -->
      <path d="m2.82,11.57v4.24h2.74v-4.24h2.44v10.5h-2.44v-4.57h-2.74v4.57H.38v-10.5h2.44Z"/>
      <path d="m16.18,11.57v1.69h-3.82v2.53h3.45v1.69h-3.45v2.91h3.96v1.69h-4.52c-.52,0-.96-.17-1.32-.52s-.55-.8-.55-1.36v-8.62h6.26Z"/>
      <path d="m20.3,11.57v8.81h4.01v1.69h-4.43c-.53,0-1-.17-1.41-.52s-.61-.78-.61-1.31v-8.67h2.44Z"/>
      <path d="m28.27,11.57v8.81h4.01v1.69h-4.43c-.53,0-1-.17-1.41-.52s-.61-.78-.61-1.31v-8.67h2.44Z"/>
      <path d="m41.34,13.03c.7,1.06,1.04,2.32,1.04,3.77s-.38,2.78-1.15,3.83c-.76,1.05-1.87,1.58-3.3,1.58-1.64,0-2.79-.55-3.46-1.64s-1-2.35-1-3.77c0-1.28.32-2.5.96-3.64.64-1.15,1.8-1.72,3.49-1.72,1.58,0,2.71.53,3.41,1.59Zm-4.9,1.08c-.35.66-.53,1.56-.53,2.69,0,1.22.19,2.14.56,2.78.38.63.86.95,1.45.95s1.1-.31,1.46-.94c.37-.62.55-1.55.55-2.79s-.18-2.16-.55-2.77c-.37-.61-.86-.91-1.46-.91-.64,0-1.14.33-1.49.99Z"/>
    </g>
  </g>
  <g id="stroke">
    <path class="cls-1" d="m1.5,11.43v10.64l.14-5.32h5.09l.19-5.18-.28,10.5,4.58-9.98,4.96.23-4.82.09-.23,4.33h4.68l-4.68.43-.05,4.11,5.24.05,2.89-10.37v10.28l5.33.14,2.9-10.19.33,10.05,4.81-.05,2.34-3.92s-1.06-5.28,3.02-5.23,3.62,5.93,3.62,5.93c0,0-1.5,6.12-6.63,1.96"/>
  </g>
</svg>