<svg id="Layer_1" data-name="Layer 1" xmlns="http://www.w3.org/2000/svg" viewBox="0 0 39.74 16.44">
<defs>
    <style>
        .cls-1{fill:#0087d0;stroke:#0087d0;}.cls-1,.cls-2{stroke-miterlimit:10;stroke-width:2px;}.cls-2{fill:none;stroke:#000eff;}
    </style>
</defs>
<title>hello</title>
    <path d="M152.57,229v2.46h3.75V229a1.13,1.13,0,0,1,.24-.79.8.8,0,0,1,.63-.27.83.83,0,0,1,.63.26,1.16,1.16,0,0,1,.24.8v6.76a1.14,1.14,0,0,1-.24.8.82.82,0,0,1-.63.26.77.77,0,0,1-.63-.26,1.16,1.16,0,0,1-.24-.8v-2.88h-3.75v2.88a1.1,1.1,0,0,1-.25.8.89.89,0,0,1-1.26,0,1.21,1.21,0,0,1-.23-.8V229a1.18,1.18,0,0,1,.23-.79.77.77,0,0,1,.63-.27.87.87,0,0,1,.64.26A1.16,1.16,0,0,1,152.57,229Z" transform="translate(-150.69 -220.85)"/><path d="M165.59,229.4h-3.92v2.11h3.61a.86.86,0,0,1,.6.18.6.6,0,0,1,.19.47.63.63,0,0,1-.19.48.86.86,0,0,1-.6.18h-3.61v2.45h4.06a.89.89,0,0,1,.62.19.62.62,0,0,1,.2.5.63.63,0,0,1-.2.5.94.94,0,0,1-.62.19H161a.91.91,0,0,1-1.07-1.07v-6.45a1.56,1.56,0,0,1,.11-.62.72.72,0,0,1,.35-.34,1.36,1.36,0,0,1,.61-.11h4.59a.9.9,0,0,1,.62.18.7.7,0,0,1,0,1A.9.9,0,0,1,165.59,229.4Z" transform="translate(-150.69 -220.85)"/>
    <path d="M169.64,229v6.25h3.53a1,1,0,0,1,.65.2.67.67,0,0,1,.22.52.64.64,0,0,1-.22.51,1,1,0,0,1-.65.2H169a.91.91,0,0,1-1.07-1.07V229a1.13,1.13,0,0,1,.24-.79.8.8,0,0,1,.62-.27.84.84,0,0,1,.64.26A1.16,1.16,0,0,1,169.64,229Z" transform="translate(-150.69 -220.85)"/>
    <path d="M176.89,229v6.25h3.53a1,1,0,0,1,.65.2.67.67,0,0,1,.22.52.64.64,0,0,1-.22.51,1,1,0,0,1-.65.2h-4.2a1.16,1.16,0,0,1-.82-.25,1.12,1.12,0,0,1-.25-.82V229a1.13,1.13,0,0,1,.24-.79.78.78,0,0,1,.62-.27.85.85,0,0,1,.64.26A1.16,1.16,0,0,1,176.89,229Z" transform="translate(-150.69 -220.85)"/>
    <path d="M185.62,227.91a4.59,4.59,0,0,1,2.29.54,3.56,3.56,0,0,1,1.45,1.55,5.18,5.18,0,0,1,.49,2.34,5.69,5.69,0,0,1-.27,1.81,3.78,3.78,0,0,1-.81,1.41,3.53,3.53,0,0,1-1.32.92,4.78,4.78,0,0,1-1.8.31,4.66,4.66,0,0,1-1.8-.32,3.45,3.45,0,0,1-1.33-.92,3.82,3.82,0,0,1-.81-1.42,5.85,5.85,0,0,1-.27-1.8,5.56,5.56,0,0,1,.28-1.82,4,4,0,0,1,.82-1.4,3.47,3.47,0,0,1,1.32-.89A4.61,4.61,0,0,1,185.62,227.91Zm2.47,4.42a3.89,3.89,0,0,0-.31-1.63,2.22,2.22,0,0,0-.87-1,2.34,2.34,0,0,0-1.29-.36,2.4,2.4,0,0,0-1,.2,2.12,2.12,0,0,0-.76.57,2.72,2.72,0,0,0-.5,1,4.65,4.65,0,0,0,0,2.63,2.59,2.59,0,0,0,.52,1,2.15,2.15,0,0,0,.77.58,2.32,2.32,0,0,0,1,.19,2.41,2.41,0,0,0,1.23-.33,2.33,2.33,0,0,0,.89-1A4,4,0,0,0,188.09,232.33Z" transform="translate(-150.69 -220.85)"/>
    <path class="cls-1" d="M151.57,228.06" transform="translate(-150.69 -220.85)"/><polyline class="cls-2" points="1 7.06 1 11.22 1 15.94"/><line class="cls-2" x1="7.38" y1="11.43" x2="1" y2="11.43"/><line class="cls-2" x1="6.5" y1="7.06" x2="6.5" y2="15.94"/><polyline class="cls-2" points="6.65 15.94 10.01 7.8 15.72 7.88"/><line class="cls-2" x1="10.17" y1="15.8" x2="10.33" y2="7.8"/><line class="cls-2" x1="15.87" y1="15.11" x2="9.24" y2="14.97"/><polyline class="cls-2" points="9.24 11.19 15.38 11.31 18.13 7.21 18.13 15.63"/><polyline class="cls-2" points="17.21 15.11 23.35 15.09 25.17 7.06 25.69 15.63"/><line class="cls-2" x1="30.6" y1="15.24" x2="24.46" y2="15.24"/>
    <path class="cls-2" d="M181.29,235.94a25.63,25.63,0,0,1,.56-3c.59-2.35,1.71-5.09,3.63-4.28a4,4,0,0,1,3.94,4c.1,4-4.59,3.63-4.59,3.63s-3.59-2.67-2.71-2.38" transform="translate(-150.69 -220.85)"/>
</svg>