<?xml version="1.0" encoding="UTF-8"?>
<svg id="_레이어_1" data-name=" 레이어 1" xmlns="http://www.w3.org/2000/svg" viewBox="0 0 39.52 11.78">
  <defs>
    <style>
      .cls-1 {
        fill: none;
        stroke: #2900b9;
        stroke-miterlimit: 10;
      }
    </style>
  </defs>
  <path class="cls-1" d="m3.25,2.78S2.35-.48.89.8s1.72,5.9,1.72,5.9c0,0,2.04,4.05-2.11,2.55"/>
  <path class="cls-1" d="m8.23,10V3.83s-.1-3.96-3.29-.41"/>
  <path class="cls-1" d="m7.75,4.5s-2.81.76-2.68,2.81,1.72,2.81,2.68,1.41.29-.32.29-.32"/>
  <polyline class="cls-1" points="11.07 1.99 11.07 3.8 11.07 10"/>
  <path class="cls-1" d="m10.91,3.54c3.38-2.49,3.13-1.02,3.13-1.02v7.48"/>
  <path class="cls-1" d="m18.89.73s2.39-.32.61,1.5c0,0-3.03-.29-3,2.62s2.3,2.46,2.3,2.46c0,0,1.18-.09,1.12-2.58s-.93-2.14-.93-2.14"/>
  <path class="cls-1" d="m17.13,7.33s-2.42,1.82,2.92,2.1c0,0,1.55.53-.21,1.49s-3.35-.26-3.35-.26c0,0-.45-.55.67-1.23"/>
  <line class="cls-1" x1="22.59" y1="1.94" x2="23.8" y2="10"/>
  <line class="cls-1" x1="25.4" y1="1.94" x2="23.74" y2="9.59"/>
  <line class="cls-1" x1="26.58" y1="10" x2="25.3" y2="2.38"/>
  <line class="cls-1" x1="28.27" y1="1.99" x2="26.51" y2="9.59"/>
  <path class="cls-1" d="m31.84,2.38s-1.72-.46-1.63,3.38c0,0-.35,3.77,1.63,3.82s1.91-4.54,1.91-4.54c0,0-.06-2.86-1.91-2.66Z"/>
  <polyline class="cls-1" points="36.22 2.09 36.22 3.45 36.22 10"/>
  <path class="cls-1" d="m36.34,4.02c2.49-2.94,2.68-1.64,2.68-1.64v7.61"/>
</svg>