<svg id="Layer_1" data-name="Layer 1" xmlns="http://www.w3.org/2000/svg" viewBox="0 0 42.25 10.75">
<defs>
<style>.cls-1,.cls-2{fill:none;stroke:#ed1e79;}.cls-1{stroke-linecap:round;stroke-linejoin:round;}.cls-2{stroke-miterlimit:10;}
</style>
</defs>
<path id="sebhin" class="cls-1" d="M941.57,539.25s-1.79,1-.94,2.58c0,0,1.37,1.5.94,2.45,0,0-3.32,1.82-2.15,1.17s3.91-1.79,5.63-3c.39-.26.76-.54,1.13-.83s.65-.53,1-.82.47-.45.69-.69a2.75,2.75,0,0,0,.22-.26.51.51,0,0,0,.13-.29,1.78,1.78,0,0,0-.1-.51.59.59,0,0,0-.33-.36,1,1,0,0,0-.75.06,3.5,3.5,0,0,0-.51.26c-1.63,1-1.89,4.27-.49,4.86s4.39-1.28,5.15-2.94,1.66-4.3,1.66-4.3-1.85,4.5-1.85,7.24a1.43,1.43,0,0,0,.54,1.35,1.3,1.3,0,0,0,1,.05,3.54,3.54,0,0,0,1.64-1,5,5,0,0,0,1-1.61,3,3,0,0,0,.23-2,.81.81,0,0,0-.5-.61.87.87,0,0,0-.36,0,2.24,2.24,0,0,0-.82.44,11.18,11.18,0,0,0-2.33,2.94,1.85,1.85,0,0,0-.11,1.79s1.73.62,4.86-2.41a13.79,13.79,0,0,0,2.38-2.15c.29-.61,1-5.91.88-4.8s-1.47,8.09-1.37,7.93-.33.78,1.14-1.11,2.55-3.62,3.26-2.71.1,4,1.93,3.07a11.8,11.8,0,0,0,3.58-2.94c.17-.36-1,3,.39,4.27,0,0,.79.46,2.55-1a17.49,17.49,0,0,0,2.09-1.94,6.27,6.27,0,0,0,.81-1.87c.1-.75-1,3.48-.55,4.63,0,0-.14.35.35-.43s2.35-3.53,3.07-3.13c0,0-.07,4.08,2.25,3.39s1.34-.71,1.34-.71" transform="translate(-938.67 -535.34)"/>
<circle id="dot" class="cls-2" cx="30.29" cy="1.2" r="0.38"/>
</svg>